<svg id="visual" viewBox="0 0 960 540" width="960" height="540" xmlns="http://www.w3.org/2000/svg" xmlns:xlink="http://www.w3.org/1999/xlink" version="1.1"><rect x="0" y="0" width="960" height="540" fill="#feab8d"></rect><path d="M0 333L137 330L274 319L411 401L549 345L686 328L823 352L960 380L960 541L823 541L686 541L549 541L411 541L274 541L137 541L0 541Z" fill="#99c9bd"></path><path d="M0 378L137 417L274 419L411 394L549 397L686 406L823 358L960 394L960 541L823 541L686 541L549 541L411 541L274 541L137 541L0 541Z" fill="#709c9b"></path><path d="M0 395L137 432L274 424L411 404L549 434L686 393L823 394L960 406L960 541L823 541L686 541L549 541L411 541L274 541L137 541L0 541Z" fill="#4d7076"></path><path d="M0 459L137 458L274 473L411 443L549 474L686 475L823 476L960 484L960 541L823 541L686 541L549 541L411 541L274 541L137 541L0 541Z" fill="#2f4750"></path><path d="M0 511L137 485L274 478L411 487L549 479L686 475L823 502L960 513L960 541L823 541L686 541L549 541L411 541L274 541L137 541L0 541Z" fill="#15212a"></path></svg>